<svg xmlns="http://www.w3.org/2000/svg" width="22.8" height="19" viewBox="0 0 22.8 19">
  <path id="Path_432" data-name="Path 432" d="M317.18,2612H297.42a1.525,1.525,0,0,1-1.52-1.52V2596.8a1.525,1.525,0,0,1,1.52-1.52h2.242v.8a2.28,2.28,0,1,0,4.56-.038v-.76h6.08l.038.8a2.265,2.265,0,0,0,2.28,2.28,2.291,2.291,0,0,0,2.28-2.318v-.76h2.28a1.525,1.525,0,0,1,1.52,1.52v13.68A1.525,1.525,0,0,1,317.18,2612Zm-15.96-11.4h-3.8v2.28h3.8Zm0,3.8h-3.8v2.28h3.8Zm0,3.8h-3.8v2.28h3.8Zm5.32-7.6h-3.8v2.28h3.8Zm0,3.8h-3.8v2.28h3.8Zm0,3.8h-3.8v2.28h3.8Zm5.32-7.6h-3.8v2.28h3.8Zm0,3.8h-3.8v2.28h3.8Zm0,3.8h-3.8v2.28h3.8Zm5.32-7.6h-3.8v2.28h3.8Zm0,3.8h-3.8v2.28h3.8Zm0,3.8h-3.8v2.28h3.8Zm-4.56-10.64a1.525,1.525,0,0,1-1.52-1.52v-1.52a1.52,1.52,0,1,1,3.04,0v1.52A1.525,1.525,0,0,1,312.62,2597.56Zm-10.64,0a1.525,1.525,0,0,1-1.52-1.52v-1.52a1.52,1.52,0,1,1,3.04,0v1.52A1.525,1.525,0,0,1,301.98,2597.56Z" transform="translate(-295.9 -2593)" fill="#ee5282" fill-rule="evenodd"/>
</svg>
