<svg xmlns="http://www.w3.org/2000/svg" width="25" height="25" viewBox="0 0 25 25"><defs><style>.a{fill:#004f4d;}</style></defs><path class="a" d="M16,25H3a6.007,6.007,0,0,1-6-6V6A6.007,6.007,0,0,1,3,0H16a6.007,6.007,0,0,1,6,6V19A6.007,6.007,0,0,1,16,25Zm-5.046-9.09h0v6.9H14.4v-6.88H17.83l-.012-3.447H14.4s0-.127,0-.3c0-.366-.009-.979-.009-1.29a.717.717,0,0,1,.816-.723h2.624L17.818,6.76H14.259a3.233,3.233,0,0,0-3.317,3.367c0,.6,0,2.359,0,2.359L8.661,12.5v3.425l2.292-.013Z" transform="translate(3)"/></svg>