<svg xmlns="http://www.w3.org/2000/svg" xmlns:xlink="http://www.w3.org/1999/xlink" width="27" height="22" viewBox="0 0 27 22"><defs><style>.a{fill:none;}.b{fill:#fff;stroke:#707070;stroke-width:2px;}.c{clip-path:url(#a);}.d{fill:#707070;}.e{clip-path:url(#b);}.f{stroke:none;}</style><clipPath id="a"><rect class="a" width="24" height="17"/></clipPath><clipPath id="b"><rect class="a" width="22" height="17"/></clipPath></defs><g transform="translate(-1150 -187)"><g class="b" transform="translate(1150 187)"><rect class="f" width="27" height="22"/><rect class="a" x="1" y="1" width="25" height="20"/></g><g class="c" transform="translate(1151 192)"><g transform="translate(-10056 53)"><rect class="d" width="24" height="2" transform="translate(10056 -53)"/></g><g transform="translate(-10056 58)"><rect class="d" width="24" height="2" transform="translate(10056 -53)"/></g><g transform="translate(-10056 63)"><rect class="d" width="24" height="2" transform="translate(10056 -53)"/></g><g transform="translate(-10056 68)"><rect class="d" width="24" height="2" transform="translate(10056 -53)"/></g></g><g class="e" transform="translate(1155 192)"><g transform="translate(-10060 57)"><rect class="d" width="2" height="21" transform="translate(10060 -57)"/></g><g transform="translate(-10055 57)"><rect class="d" width="2" height="21" transform="translate(10060 -57)"/></g><g transform="translate(-10050 57)"><rect class="d" width="2" height="21" transform="translate(10060 -57)"/></g><g transform="translate(-10045 57)"><rect class="d" width="2" height="21" transform="translate(10060 -57)"/></g><g transform="translate(-10040 57)"><rect class="d" width="2" height="21" transform="translate(10060 -57)"/></g></g></g></svg>