<svg xmlns="http://www.w3.org/2000/svg" width="17.001" height="13.813" viewBox="0 0 17.001 13.813"><defs><style>.a{fill:#fafafa;}</style></defs><path class="a" d="M146.442,300.362a7.022,7.022,0,0,1-2.217.847,3.491,3.491,0,0,0-5.943,3.18,9.9,9.9,0,0,1-7.188-3.645,3.492,3.492,0,0,0,1.08,4.656,3.488,3.488,0,0,1-1.58-.438v.044a3.493,3.493,0,0,0,2.8,3.42,3.534,3.534,0,0,1-.919.122,3.431,3.431,0,0,1-.657-.064,3.5,3.5,0,0,0,3.257,2.424,6.994,6.994,0,0,1-4.331,1.492,7.4,7.4,0,0,1-.832-.048A9.919,9.919,0,0,0,145.18,304l-.012-.452a7.012,7.012,0,0,0,1.743-1.8,6.957,6.957,0,0,1-2,.549A3.507,3.507,0,0,0,146.442,300.362Z" transform="translate(-129.91 -300.107)"/></svg>