<svg xmlns="http://www.w3.org/2000/svg" width="20.089" height="18.706" viewBox="0 0 20.089 18.706"><defs><style>.a{fill:#666;}</style></defs><path class="a" d="M395.752,1054.239l-3.044-3.045v-3.517a1.151,1.151,0,0,0-2.3,0v1.214l-2.267-2.267a3.029,3.029,0,0,0-4.188,0l-7.613,7.612a1.152,1.152,0,0,0,1.629,1.628l7.612-7.613a.68.68,0,0,1,.932,0l7.613,7.613a1.152,1.152,0,0,0,1.629-1.628Zm-9.307-3.8a.565.565,0,0,0-.8,0l-6.7,6.694a.567.567,0,0,0-.166.4v4.882a2.075,2.075,0,0,0,2.075,2.074h3.315v-5.134h3.743v5.134h3.315a2.075,2.075,0,0,0,2.075-2.074v-4.882a.566.566,0,0,0-.166-.4Z" transform="translate(-376 -1045.785)"/></svg>