<svg xmlns="http://www.w3.org/2000/svg" width="21" height="21.062" viewBox="0 0 21 21.062"><defs><style>.a{fill:#004f4d;}</style></defs><path class="a" d="M2077.749,1652.837v-2.275a.987.987,0,0,1,.987-.987h.987a.987.987,0,0,1,.987.987v2.275a.987.987,0,0,1-.987.987h-.987A.987.987,0,0,1,2077.749,1652.837Zm8.862.987h.987a.987.987,0,0,0,.987-.987v-2.275a.987.987,0,0,0-.987-.987h-.987a.987.987,0,0,0-.987.987v2.275A.987.987,0,0,0,2086.611,1653.825Zm8.389.061v16.751h-19.41v-2.625H2074v-15.75h3.091v.576a1.647,1.647,0,0,0,1.645,1.645h.987a1.646,1.646,0,0,0,1.645-1.645v-.576h3.6v.576a1.647,1.647,0,0,0,1.645,1.645h.987a1.647,1.647,0,0,0,1.645-1.645v-.576h3.133v1.624Zm-4.133,12.666v-10.2h-15.441v10.2Zm2.653-11.062h-1.145v12.522h-15.181v1.145h16.325Zm-13.656,2.186h-1.641a.658.658,0,0,0-.658.659v1.641a.658.658,0,0,0,.658.658h1.641a.658.658,0,0,0,.658-.658v-1.641A.658.658,0,0,0,2079.863,1657.676Zm4.291,0h-1.642a.658.658,0,0,0-.657.659v1.641a.658.658,0,0,0,.657.658h1.642a.657.657,0,0,0,.658-.658v-1.641A.658.658,0,0,0,2084.154,1657.676Zm4.263,0h-1.642a.658.658,0,0,0-.658.659v1.641a.657.657,0,0,0,.658.658h1.642a.657.657,0,0,0,.657-.658v-1.641A.658.658,0,0,0,2088.417,1657.676Zm0,4.277h-1.642a.658.658,0,0,0-.658.658v1.642a.657.657,0,0,0,.658.658h1.642a.657.657,0,0,0,.657-.658v-1.642A.658.658,0,0,0,2088.417,1661.953Zm-4.263,0h-1.642a.658.658,0,0,0-.657.658v1.642a.658.658,0,0,0,.657.658h1.642a.657.657,0,0,0,.658-.658v-1.642A.658.658,0,0,0,2084.154,1661.953Zm-4.291,0h-1.641a.658.658,0,0,0-.658.658v1.642a.658.658,0,0,0,.658.658h1.641a.658.658,0,0,0,.658-.658v-1.642A.658.658,0,0,0,2079.863,1661.953Z" transform="translate(-2074 -1649.575)"/></svg>