<svg xmlns="http://www.w3.org/2000/svg" width="29.015" height="32.981" viewBox="0 0 29.015 32.981"><defs><style>.a{fill:none;stroke:#fff;stroke-width:2px;}</style></defs><path class="a" d="M341.214,80a.651.651,0,0,1-.65-.651V76.781a.65.65,0,0,1,.65-.65h.635a.65.65,0,0,1,.651.65v2.569a.651.651,0,0,1-.651.651Zm-10.631-5.779c-1.695,0-1.525-1.183-1.525-1.183s-.675-.688,2.8-3.965c3.221-3.041,2.8-3.173,2.8-8.494s6.116-5.491,6.116-5.491h3.463s5.954.169,5.954,5.491-.263,5.453,2.959,8.494c3.472,3.278,2.8,3.965,2.8,3.965s.169,1.183-1.526,1.183Zm9.922-23.208a2.01,2.01,0,1,1,2.01,1.993A2,2,0,0,1,340.505,51.013Z" transform="translate(-327.992 -48.019)"/></svg>