<svg xmlns="http://www.w3.org/2000/svg" width="18.486" height="17.79" viewBox="0 0 18.486 17.79"><defs><style>.a{fill:#fff;fill-rule:evenodd;}</style></defs><path class="a" d="M549.282,1729a.79.79,0,0,0-.735.541l-1.818,5.646h-5.994a.744.744,0,0,0-.735.774.7.7,0,0,0,.309.619c.116.077,4.834,3.519,4.834,3.519s-1.818,5.569-1.856,5.646a.575.575,0,0,0-.039.271.769.769,0,0,0,.735.773.779.779,0,0,0,.425-.116l4.834-3.519s4.718,3.442,4.834,3.519a.781.781,0,0,0,.425.116.743.743,0,0,0,.735-.773.657.657,0,0,0-.039-.271c-.039-.077-1.856-5.646-1.856-5.646s4.718-3.442,4.834-3.519a.752.752,0,0,0,.309-.619.744.744,0,0,0-.735-.774h-5.994l-1.818-5.646A.636.636,0,0,0,549.282,1729Z" transform="translate(-540 -1729)"/></svg>