<svg xmlns="http://www.w3.org/2000/svg" width="18.708" height="19.79" viewBox="0 0 18.708 19.79"><defs><style>.a{fill:#666;fill-rule:evenodd;}</style></defs><path class="a" d="M116.332,4.573a4.7,4.7,0,0,1,4.81,4.661,4.851,4.851,0,0,1-9.694,0A4.762,4.762,0,0,1,116.332,4.573Zm5.593,9.433,5.332,5.145a.833.833,0,0,1,0,1.193l-1.193,1.193a.833.833,0,0,1-1.193,0l-5.518-5.63-.112.075A7.586,7.586,0,0,1,108.8,9.233,7.4,7.4,0,0,1,116.332,2a7.224,7.224,0,0,1,5.7,11.894Z" transform="translate(-108.8 -2)"/></svg>