<svg xmlns="http://www.w3.org/2000/svg" width="16.764" height="16.019" viewBox="0 0 16.764 16.019"><defs><style>.a{fill:#705ca7;}</style></defs><path class="a" d="M16.764,19.379v6.2H13.171V19.794c0-1.453-.52-2.444-1.82-2.444a1.966,1.966,0,0,0-1.844,1.314,2.459,2.459,0,0,0-.119.876v6.036H5.794s.048-9.794,0-10.808H9.387V16.3l-.024.035h.024V16.3a3.569,3.569,0,0,1,3.239-1.786C14.991,14.514,16.764,16.059,16.764,19.379ZM2.034,9.558a1.873,1.873,0,1,0-.048,3.736H2.01a1.874,1.874,0,1,0,.024-3.736ZM.213,25.577H3.806V14.768H.213Z" transform="translate(0 -9.558)"/></svg>