<svg xmlns="http://www.w3.org/2000/svg" xmlns:xlink="http://www.w3.org/1999/xlink" width="30" height="30" viewBox="0 0 30 30"><defs><style>.a{fill:#fc9e4c;}.b{clip-path:url(#a);}.c{fill:#ee5282;}</style><clipPath id="a"><rect class="a" width="30" height="30" transform="translate(36 1150)"/></clipPath></defs><g class="b" transform="translate(-36 -1150)"><path class="c" d="M73.6,67.821l7.966,8.052a5.347,5.347,0,0,1,.961,1.474,4.635,4.635,0,0,1-8.543,3.524,4.548,4.548,0,0,1-.363-1.73ZM38.493,32.175a4.531,4.531,0,1,0-6.407,6.407L71.02,78.008V65.194ZM73.6,35.443a4.506,4.506,0,0,1,8.927,0V73.267l-9.013-9.1Z" transform="translate(-17.849 1233.186) rotate(-90)"/></g></svg>