<svg xmlns="http://www.w3.org/2000/svg" xmlns:xlink="http://www.w3.org/1999/xlink" width="124" height="124" viewBox="0 0 124 124"><defs><style>.a{fill:#fafafa;}.b{opacity:0.07;clip-path:url(#a);}</style><clipPath id="a"><rect class="a" width="124" height="124" transform="translate(-123.15 1122)"/></clipPath></defs><g class="b" transform="translate(123.15 -1122)"><path class="a" d="M141.015,121.685l26.219,26.5a17.6,17.6,0,0,1,3.163,4.85,15.254,15.254,0,0,1-28.117,11.6,14.969,14.969,0,0,1-1.195-5.694ZM25.453,4.365A14.911,14.911,0,0,0,4.365,25.453L132.51,155.215V113.039ZM141.015,15.12a14.832,14.832,0,0,1,29.383,0V139.609l-29.664-29.945Z" transform="translate(-184.02 1304.477) rotate(-90)"/></g></svg>