<svg xmlns="http://www.w3.org/2000/svg" xmlns:xlink="http://www.w3.org/1999/xlink" width="47" height="47" viewBox="0 0 47 47"><defs><style>.a{fill:#fff;}.b{filter:url(#a);}</style><filter id="a" x="0" y="0" width="47" height="47" filterUnits="userSpaceOnUse"><feOffset dy="3" input="SourceAlpha"/><feGaussianBlur stdDeviation="1.5" result="b"/><feFlood flood-opacity="0.102"/><feComposite operator="in" in2="b"/><feComposite in="SourceGraphic"/></filter></defs><g class="b" transform="matrix(1, 0, 0, 1, 0, 0)"><path class="a" d="M421.011,372.131v-6.046a.864.864,0,0,0-.864-.863H390.784a.863.863,0,0,0-.864.863v18.137h-6.045a.864.864,0,0,0-.864.863V398.9a4.324,4.324,0,0,0,4.319,4.319h29.363a4.324,4.324,0,0,0,4.319-4.319h0V372.131ZM384.738,398.9V385.949h5.182v1.728h-3.455V389.4h3.455v1.728h-3.455v1.727h3.455v1.727h-3.455v1.728h3.455v1.727h-3.455v1.728h3.3a2.585,2.585,0,0,1-5.023-.864Zm6.909-31.955h27.637V398.9a2.592,2.592,0,0,1-2.592,2.591H390.784c.023-.032.042-.071.066-.1.051-.072.1-.148.142-.222a4.4,4.4,0,0,0,.244-.451c.04-.087.077-.168.111-.26a4.253,4.253,0,0,0,.16-.514c.02-.08.046-.159.061-.242a4.209,4.209,0,0,0,.079-.8Zm2.591,6.909H415.83a.864.864,0,0,0,.863-.864V369.54a.863.863,0,0,0-.863-.863H394.238a.863.863,0,0,0-.863.863v3.455a.864.864,0,0,0,.863.864Zm.864-3.455h19.864v1.728H395.1Zm9.5,11.228v-5.182a.864.864,0,0,0-.864-.864H399.42a.865.865,0,0,0-.864.864v5.182a.864.864,0,0,0,.864.863h4.318a.863.863,0,0,0,.864-.863Zm-1.727-.864h-2.591v-3.455h2.591Zm-9.5-4.319h3.455v1.728h-3.455Zm7.772,16.409h8.637a.864.864,0,0,0,.863-.864v-6.909a.863.863,0,0,0-.863-.863h-8.637a.863.863,0,0,0-.863.863v6.909a.864.864,0,0,0,.863.864Zm.864-6.909h6.909v5.182h-6.909Zm10.364,0h5.181v1.728h-5.181Zm0,3.455h5.181v1.728h-5.181Zm-19,5.181H404.6v1.728H393.375Zm0,3.455H404.6v1.728H393.375Zm0-12.091h5.181v1.728h-5.181Zm0,3.455h5.181v1.728h-5.181Zm12.955-12.955h11.227v1.728H406.33ZM393.375,379.9h3.455v1.728h-3.455Zm12.955,0h11.227v1.728H406.33Zm0,14.681h11.227v1.728H406.33Zm0,3.455h11.227v1.728H406.33Z" transform="translate(-378.51 -363.72)"/></g></svg>