<svg xmlns="http://www.w3.org/2000/svg" width="18" height="18" viewBox="0 0 18 18"><defs><style>.a{fill:#666;fill-rule:evenodd;}</style></defs><path class="a" d="M427.787,1599.23l-1.077,1.076-2.317-2.282,1.11-1.141a.585.585,0,0,1,.914.065l1.4,1.434A.559.559,0,0,1,427.787,1599.23Zm-7.049,7.074-2.285,1.206-1.11-1.206.849-2.151,5.613-5.542,2.48,2.347Zm-2.839,1.565-1.273.2.294-1.141Zm3.1-8.182h-8.388a.654.654,0,0,0-.653.652v11.735a.654.654,0,0,0,.653.652H424.36a.654.654,0,0,0,.653-.652v-8.541a.93.93,0,0,1,1.012-.75s.946.163.946.75v9.193a1.963,1.963,0,0,1-1.958,1.956H411.958a1.963,1.963,0,0,1-1.958-1.956v-13.039a1.963,1.963,0,0,1,1.958-1.956h9.106c.718,0,.685,1.01.685,1.01C421.749,1599.361,421,1599.687,421,1599.687Z" transform="translate(-410 -1596.682)"/></svg>