<svg xmlns="http://www.w3.org/2000/svg" width="51.574" height="42.79" viewBox="0 0 51.574 42.79"><defs><style>.a{fill:#fafafa;}</style></defs><path class="a" d="M202.553,309.385h2.666a3.732,3.732,0,0,0,3.732-3.723l.007-5.058a6.018,6.018,0,0,0,2.254.434h8.993v3.945a.817.817,0,0,0,1.294.639l6-4.585H229.9a6.034,6.034,0,0,0,6.035-6.019V276.394a6.036,6.036,0,0,0-6.035-6.019v-.005h-2.363a.805.805,0,0,0,0,1.61H229.9a4.423,4.423,0,0,1,4.425,4.409V295.02a4.422,4.422,0,0,1-4.425,4.409h-2.68a.813.813,0,0,0-.489.166l-4.917,3.761v-3.122a.8.8,0,0,0-.8-.8h-9.8a4.391,4.391,0,0,1-2.254-.614v-9.037a4.913,4.913,0,0,0-2.171-4.073v-9.316a4.422,4.422,0,0,1,4.425-4.409h11.278a.8.8,0,1,0,0-1.61H211.212a6.034,6.034,0,0,0-6.035,6.019v8.6a4.991,4.991,0,0,0-1.148-.136H189.291a4.929,4.929,0,0,0-4.929,4.917v1.738a.805.805,0,0,0,1.61,0h0v-1.738a3.317,3.317,0,0,1,3.319-3.307h14.738a3.318,3.318,0,0,1,3.319,3.307l-.007,15.887a2.121,2.121,0,0,1-2.122,2.113H202.27a.8.8,0,0,0-.492.168l-3.584,2.777v-2.143a.806.806,0,0,0-.8-.8h-8.1a3.316,3.316,0,0,1-3.319-3.306v-8.124a.805.805,0,0,0-1.61,0v8.124a4.928,4.928,0,0,0,4.929,4.917h7.291v2.977a.817.817,0,0,0,1.3.637Zm20.015-33.067a1.675,1.675,0,0,0-2.064,1.6,4.729,4.729,0,0,1-1.184,3.131l-2.218,2.51a.8.8,0,0,0-.674-.367H212.1a.8.8,0,0,0-.8.806v9.743a.8.8,0,0,0,.8.8h4.331a.8.8,0,0,0,.732-.471,5.615,5.615,0,0,0,2.926.825h7.653a2.105,2.105,0,0,0,2.08-2.131v-.05c-.024-.516,0-7.452,0-7.606a2.084,2.084,0,0,0-2.079-2.082l-3.979-.012.165-.39a6.288,6.288,0,0,0-.331-5.532,1.645,1.645,0,0,0-1.027-.782Zm-6.945,16.621H212.9v-8.133h2.72Zm12.116-8.294a.472.472,0,0,1,.471.471v1.133c-.012,3.112-.02,6.059,0,6.55a.473.473,0,0,1-.444.5h-7.68a4,4,0,0,1-2.514-.891l-.339-.274v-6.282l3.295-3.728a6.341,6.341,0,0,0,1.586-4.2.046.046,0,0,1,.047-.043.049.049,0,0,1,.036.021,4.668,4.668,0,0,1,.246,4.106l-.635,1.5a.806.806,0,0,0,.427,1.056.816.816,0,0,0,.312.063Zm-36.354,13.687a.8.8,0,0,0,0,1.61h2.373l-.443,2.682a.8.8,0,0,0,.653.925h.01a.736.736,0,0,0,.133.011.8.8,0,0,0,.793-.674l.487-2.944h1.942l-.442,2.681a.805.805,0,0,0,1.589.263l.486-2.944h3.225a.8.8,0,1,0,0-1.61h-2.96l.324-1.964h2.636a.8.8,0,1,0,0-1.61h-2.369l.443-2.681a.805.805,0,0,0-1.589-.263l-.487,2.944h-1.942l.444-2.682a.805.805,0,1,0-1.589-.263l-.486,2.944h-3.23a.805.805,0,1,0,0,1.61h2.964l-.325,1.964Zm4.6-1.964h1.942l-.325,1.964h-1.945Z" transform="translate(-184.362 -270.37)"/></svg>