<svg xmlns="http://www.w3.org/2000/svg" width="17.99" height="20.98" viewBox="0 0 17.99 20.98"><defs><style>.a{fill:#ff893d;}</style></defs><g transform="translate(-1015.697 -35.658)"><path class="a" d="M336.71,69.355v-1.33a.645.645,0,0,1,1.291,0v1.33a.645.645,0,0,1-1.291,0Zm-6.653-3.268c-1.129,0-1.017-.8-1.017-.8s-.45-.466,1.865-2.686c2.147-2.059,1.865-2.149,1.865-5.753s4.076-3.718,4.076-3.718h2.309s3.968.114,3.968,3.718-.175,3.694,1.973,5.753c2.315,2.219,1.865,2.686,1.865,2.686s.113.8-1.017.8ZM336.67,50.37a1.34,1.34,0,1,1,1.34,1.35A1.344,1.344,0,0,1,336.67,50.37Z" transform="translate(686.692 -13.362)"/></g></svg>