<svg xmlns="http://www.w3.org/2000/svg" width="37.001" height="37.001" viewBox="0 0 37.001 37.001"><defs><style>.a{fill:#fff;}</style></defs><path class="a" d="M407.762,1037.218a.8.8,0,1,0,0,1.609,5.637,5.637,0,0,1,5.631,5.63v.8H379.609v-.8a5.637,5.637,0,0,1,5.631-5.63.8.8,0,1,0,0-1.609,7.248,7.248,0,0,0-7.239,7.239v19.305a7.248,7.248,0,0,0,7.239,7.239h22.522a7.248,7.248,0,0,0,7.239-7.239v-19.305A7.248,7.248,0,0,0,407.762,1037.218Zm0,32.175H385.239a5.637,5.637,0,0,1-5.631-5.63V1046.87h33.784v16.892A5.637,5.637,0,0,1,407.762,1069.392Zm-16.892-31.37a.8.8,0,0,1,.8-.8h9.652a.8.8,0,1,1,0,1.609h-9.652A.8.8,0,0,1,390.87,1038.022Zm-3.217,3.217V1034.8a.8.8,0,0,1,1.609,0v6.435a.8.8,0,0,1-1.609,0Zm16.087,0V1034.8a.8.8,0,0,1,1.609,0v6.435a.8.8,0,0,1-1.609,0Zm-1.609,14.479a12.728,12.728,0,0,0-1.72-5.233.8.8,0,0,0-.693-.4h-6.435a.8.8,0,0,0-.692.394,12.622,12.622,0,0,0-1.721,5.236,5.638,5.638,0,0,0,4.826,5.572v3.276h-2.413a.8.8,0,1,0,0,1.609h6.435a.8.8,0,1,0,0-1.609H397.3v-3.276A5.638,5.638,0,0,0,402.131,1055.718Zm-9.652,0a10.17,10.17,0,0,1,1.279-4.022h5.486a10.288,10.288,0,0,1,1.279,4.022,4.022,4.022,0,1,1-8.044,0Z" transform="translate(-378 -1034)"/></svg>