<svg xmlns="http://www.w3.org/2000/svg" width="18" height="18" viewBox="0 0 18 18"><defs><style>.a{fill:#655e6b;fill-rule:evenodd;opacity:0.86;}</style></defs><path class="a" d="M111.932,917.9a9,9,0,1,1,0-18,8.752,8.752,0,0,1,8.968,9A8.969,8.969,0,0,1,111.932,917.9Zm-4.821-13.772a.856.856,0,0,1-.1-.416,2.979,2.979,0,0,1,.161-.449l.321-.448a1.012,1.012,0,0,1,.354.1,1.32,1.32,0,0,0,.675-.032l-.193-.833s-2.507.865-4.018,4.516a5.582,5.582,0,0,1,.1.769.931.931,0,0,0-.032.512,2.483,2.483,0,0,0,.321.609l.354.416a1.235,1.235,0,0,0,.257.7c.193.192-.129.448-.129.448a4.648,4.648,0,0,0-.129.993,3.571,3.571,0,0,0,.289,1.121,4.734,4.734,0,0,0,.932.513s.45.288.45.48a1.531,1.531,0,0,0,.289.672c.129.192.739.641.675.993-.032.352.129.352.257.673s.45.416.8.48a4.285,4.285,0,0,0,.257-1.281,5.618,5.618,0,0,1-.321-.641l-.064-.673a1.441,1.441,0,0,1,.321-.448,1.583,1.583,0,0,0,.45-.609,9.339,9.339,0,0,0,.579-.993c.032-.192.611-.8.289-1.121s-.9-.352-1.157-.448c-.289-.1-1.189-.352-1.254-.672-.1-.32-.771-.192-1-.064-.257.128-1,.512-1.093.224s-.386-.48-.45-.673c-.032-.192.289,0,.354-.32.1-.32-.193-.448-.514-.288s-.418-.16-.193-.288c.193-.128.932-.7,1-.48.1.192.611.1.771.032.161-.032.418-.192.482.224.064.384.579.833.579.673s.161-.7.032-.961l-.225-.448s.771,0,.964-.448a4.516,4.516,0,0,0,.257-.9c.064-.224,0-.48-.193-.448s-.129-.48.289-.384c.418.064.161.352.161.352s.257.7.418.416.9-.9.482-1.057-.032-.833-1-.929a2.26,2.26,0,0,0-1.318.128l.064.288a.383.383,0,0,1,.1.256C107.689,904.16,107.111,904.128,107.111,904.128Zm2.282-2.4c0,.128-.032.256-.032.352a3.6,3.6,0,0,0,1.093,1.858c.579.609.579-.641.514-.8-.1-.16.611-.769.643-1.153s.418-.256.643-.673A3.311,3.311,0,0,0,109.393,901.726ZM112.832,904s-.386.128-.289.32c.129.192.546.513.579.352S113.379,904.128,112.832,904Zm1.382.449c-.289-.288-.257-.416-.193-.641.032-.224.257-.673.032-.608-.193.064-.418.16-.482.32,0,0-.289.673-.1.833C113.7,904.512,114.5,904.736,114.214,904.448Zm1.414-2.562a5.274,5.274,0,0,1-.161.8l-.321.833c-.1.512.611.544.611.544s.836.1,1.221-1.249C116.432,902.238,115.789,901.822,115.629,901.886Zm2.314,1.826c-.032-.032-.064-.032-.064,0h.064a12.809,12.809,0,0,1,.739,1.665l-.868-.1s-.321-.641-.739-.416-.1.32-.739.416-.932-.833-1.35-.512-.675-.064-.771.384a1.92,1.92,0,0,0,.064.9h-.836c-.579.288-.257,1.185-.257,1.185a2.073,2.073,0,0,0,1.446,0,2.685,2.685,0,0,0,.868-.9l1,1.217c.354.192.514-.577.514-.577-.45-.673,0-.961,0-.961l.964.416.643.737-.1.544-1.189.416s-.225,1.313-1.832.256c0,0-2.475-.416-2.475.32a9.122,9.122,0,0,0-.1,1.473s-.45,2.338.739,2.274c1.157-.1.675-.224,1.832-.512a.766.766,0,0,1,1.221.576l-.064,1.089-.257.641a.65.65,0,0,0,.225.8,8.617,8.617,0,0,0,3.086-5.509.915.915,0,0,1-.739-.416l-.643-.737h1.061a2.561,2.561,0,0,1,.321.16C120.161,906.722,118.425,903.807,117.943,903.711Z" transform="translate(-102.9 -899.9)"/></svg>