<svg xmlns="http://www.w3.org/2000/svg" width="73.518" height="77.767" viewBox="0 0 73.518 77.767"><defs><style>.a{fill:#666;fill-rule:evenodd;}</style></defs><path class="a" d="M138.4,12.11c10.7,0,18.9,8.205,18.9,18.315a18.549,18.549,0,0,1-18.9,18.315c-10.7,0-19.195-8.205-19.195-18.315S127.7,12.11,138.4,12.11Zm21.979,37.07L181.329,69.4a3.273,3.273,0,0,1,0,4.689l-4.689,4.689a3.273,3.273,0,0,1-4.689,0L150.266,56.653l-.44.293a29.417,29.417,0,0,1-11.429,2.2c-16.411,0-29.6-13.187-29.6-28.719C108.946,14.748,121.987,2,138.4,2s29.158,12.6,29.158,28.279a28.3,28.3,0,0,1-6.74,18.462Z" transform="translate(-108.8 -2)"/></svg>