<svg xmlns="http://www.w3.org/2000/svg" width="25" height="25" viewBox="0 0 25 25"><defs><style>.a{fill:#004f4d;}</style></defs><path class="a" d="M-6095,2756h-13a6.007,6.007,0,0,1-6-6v-13a6.007,6.007,0,0,1,6-6h13a6.006,6.006,0,0,1,6,6v13A6.006,6.006,0,0,1-6095,2756Zm-5.432-15.244h-3.281c.044.921,0,9.776,0,9.865h3.281v-5.509a2.206,2.206,0,0,1,.109-.8,1.8,1.8,0,0,1,1.683-1.2c1.086,0,1.66.771,1.66,2.229v5.278h3.281v-5.656c0-2.781-1.412-4.441-3.776-4.441a3.24,3.24,0,0,0-2.957,1.63Zm-8.374,0v9.865h3.279v-9.865Zm1.662-4.755a1.708,1.708,0,0,0-1.857,1.7,1.7,1.7,0,0,0,1.813,1.706h.021a1.709,1.709,0,0,0,1.856-1.706A1.7,1.7,0,0,0-6107.143,2736Z" transform="translate(6114 -2731)"/></svg>