<svg xmlns="http://www.w3.org/2000/svg" width="15.188" height="16.066" viewBox="0 0 15.188 16.066">
  <path id="Path_429" data-name="Path 429" d="M114.915,4.089a3.786,3.786,0,1,1,0,7.568,3.866,3.866,0,0,1-3.965-3.784A3.866,3.866,0,0,1,114.915,4.089Zm4.541,7.658,4.329,4.177a.676.676,0,0,1,0,.969l-.969.969a.676.676,0,0,1-.969,0l-4.48-4.571-.091.061A6.159,6.159,0,0,1,108.8,7.872,6.011,6.011,0,0,1,114.915,2a5.865,5.865,0,0,1,4.631,9.656Z" transform="translate(-108.8 -2)" fill="#ee5282" fill-rule="evenodd"/>
</svg>
