<svg xmlns="http://www.w3.org/2000/svg" width="33.295" height="33.295" viewBox="0 0 33.295 33.295"><defs><style>.a{fill:#5a6d7c;}</style></defs><path class="a" d="M-29.312,50.73a.651.651,0,0,1-.65.65.651.651,0,0,1-.65-.65.651.651,0,0,1,.65-.65A.651.651,0,0,1-29.312,50.73Zm15.6,11.049a.65.65,0,0,1-.172.561,4.513,4.513,0,0,1-3.28,1.4,4.519,4.519,0,0,1-2.366-.661,11,11,0,0,1-5.228,1.311h-.131c0,.044,0,.087,0,.131A11.067,11.067,0,0,1-35.945,75.571a11.06,11.06,0,0,1-5.272-1.334,4.508,4.508,0,0,1-2.4.684,4.363,4.363,0,0,1-3.2-1.4.651.651,0,0,1-.172-.561.651.651,0,0,1,.35-.471,4.11,4.11,0,0,0,1.677-1.581A10.922,10.922,0,0,1-47,64.516,11.067,11.067,0,0,1-35.945,53.461h.131A11.055,11.055,0,0,1-24.76,42.276,11.067,11.067,0,0,1-13.706,53.331a10.939,10.939,0,0,1-2.076,6.45,4.379,4.379,0,0,0,1.716,1.526A.65.65,0,0,1-13.715,61.779Zm-12.476,2.737a9.8,9.8,0,0,0-8.993-9.725c-.25-.019-.507-.029-.761-.029A9.765,9.765,0,0,0-45.7,64.516a9.632,9.632,0,0,0,1.858,5.728.65.65,0,0,1,.257.86,5.859,5.859,0,0,1-1.66,2.047,2.966,2.966,0,0,0,1.626.469,3.223,3.223,0,0,0,1.973-.667.65.65,0,0,1,.726-.043,9.754,9.754,0,0,0,4.974,1.36A9.765,9.765,0,0,0-26.191,64.516Zm10.713-2.552a5.663,5.663,0,0,1-1.658-1.922.65.65,0,0,1,.062-.705,9.656,9.656,0,0,0,2.068-6.006,9.765,9.765,0,0,0-9.754-9.754,9.757,9.757,0,0,0-9.752,9.977,11,11,0,0,1,1.921.427h13.033a.65.65,0,0,1,.65.65.65.65,0,0,1-.65.65H-29.867a11.052,11.052,0,0,1,4.883,7.8,9.715,9.715,0,0,0,5.153-1.331.65.65,0,0,1,.718.04,3.229,3.229,0,0,0,1.946.645A3.226,3.226,0,0,0-15.478,61.964Zm-13.314,2.552a1.953,1.953,0,0,1-1.951,1.951,1.953,1.953,0,0,1-1.951-1.951,1.953,1.953,0,0,1,1.951-1.951A1.953,1.953,0,0,1-28.792,64.516Zm-1.3,0a.651.651,0,0,0-.65-.65.651.651,0,0,0-.65.65.651.651,0,0,0,.65.65A.651.651,0,0,0-30.093,64.516Zm-3.9,0a1.953,1.953,0,0,1-1.951,1.951A1.953,1.953,0,0,1-37.9,64.516a1.953,1.953,0,0,1,1.951-1.951A1.953,1.953,0,0,1-33.994,64.516Zm-1.3,0a.651.651,0,0,0-.65-.65.651.651,0,0,0-.65.65.651.651,0,0,0,.65.65A.651.651,0,0,0-35.3,64.516Zm-3.9,0a1.953,1.953,0,0,1-1.951,1.951A1.953,1.953,0,0,1-43.1,64.516a1.953,1.953,0,0,1,1.951-1.951A1.953,1.953,0,0,1-39.2,64.516Zm-1.3,0a.651.651,0,0,0-.65-.65.651.651,0,0,0-.65.65.651.651,0,0,0,.65.65A.651.651,0,0,0-40.5,64.516Zm20.939-14.436h-7.8a.65.65,0,0,0-.65.65.65.65,0,0,0,.65.65h7.8a.65.65,0,0,0,.65-.65A.65.65,0,0,0-19.558,50.079Z" transform="translate(47 -42.276)"/></svg>