<svg xmlns="http://www.w3.org/2000/svg" width="33.129" height="39.575" viewBox="0 0 33.129 39.575"><defs><style>.a{fill:#5a6d7c;}</style></defs><path class="a" d="M1578.132,1617.75h15.492v1.278h-15.492Zm.639-5.3h-4.846v1.277h4.846Zm-4.846,6.58h2.93v-1.278h-2.93Zm14.34-11.883h-14.34v1.278h14.34Zm-8.855-10.6h-5.485v1.277h5.485Zm.638,17.186h13.576v-1.277h-13.576Zm21.506-27.9h-28.019a.639.639,0,0,0-.639.639v1.917h1.278v-1.278h26.741V1620.3h-1.277v1.277h1.917a.638.638,0,0,0,.639-.638v-34.465A.638.638,0,0,0,1601.554,1585.83Zm-3.2,10.819c0,.014.008.026.008.04v28.077a.639.639,0,0,1-.638.639H1569.7a.639.639,0,0,1-.639-.639V1590.3a.638.638,0,0,1,.639-.638h21.631c.013,0,.026.007.037,0a.635.635,0,0,1,.165.033.562.562,0,0,1,.059.021.624.624,0,0,1,.188.128l6.388,6.388a.631.631,0,0,1,.127.187c.009.02.014.04.021.061A.593.593,0,0,1,1598.352,1596.649Zm-6.38-.6h4.207l-4.207-4.207Zm5.111,1.278h-5.749a.638.638,0,0,1-.639-.639v-5.749h-20.353v33.188h26.741Zm-23.158,5.792h19.7v-1.277h-19.7Zm15.617,5.3h4.082v-1.278h-4.082Z" transform="translate(-1569.064 -1585.83)"/></svg>