<svg xmlns="http://www.w3.org/2000/svg" width="36.314" height="32.683" viewBox="0 0 36.314 32.683"><defs><style>.a{fill:#5a6d7c;}</style></defs><path class="a" d="M1864.046,1622.142H1859.2v-3.026a.605.605,0,0,0-1.21,0v3.026h-15.736v-3.026a.605.605,0,1,0-1.21,0v3.026H1836.2a4.242,4.242,0,0,0-4.237,4.237v20.578a4.243,4.243,0,0,0,4.237,4.237h27.841a4.242,4.242,0,0,0,4.237-4.237v-20.578A4.242,4.242,0,0,0,1864.046,1622.142Zm-27.841,1.211h4.842v3.026a.605.605,0,1,0,1.21,0v-3.026h15.736v3.026a.605.605,0,1,0,1.21,0v-3.026h4.842a3.03,3.03,0,0,1,3.026,3.026v4.237h-33.894v-4.237A3.03,3.03,0,0,1,1836.2,1623.353Zm27.841,26.63H1836.2a3.03,3.03,0,0,1-3.026-3.026v-15.131h33.894v15.131A3.03,3.03,0,0,1,1864.046,1649.983Zm-15.762-4.12-5.6-5.6a.577.577,0,0,1,.815-.815l4.782,4.782,8.867-8.867a.577.577,0,0,1,.815.816Z" transform="translate(-1831.968 -1618.511)"/></svg>