<svg xmlns="http://www.w3.org/2000/svg" width="29.464" height="37.781" viewBox="0 0 29.464 37.781"><defs><style>.a{fill:#465b69;}</style></defs><path class="a" d="M1989.2,1842.859a.664.664,0,0,1-.664-.664h0v-31.41a.664.664,0,1,1,1.328,0v30.746h26.809V1806.4h-26.809v1.494a.664.664,0,1,1-1.328,0v-2.156a.664.664,0,0,1,.664-.664h28.136a.664.664,0,0,1,.664.664h0v36.449a.663.663,0,0,1-.664.664h0Zm4.277-9.914a.664.664,0,0,0,.664.664h17.872a.664.664,0,0,0,0-1.327h-17.872a.665.665,0,0,0-.666.663h0Zm.664,3.495h17.872a.664.664,0,0,0,.055-1.327h-17.927a.664.664,0,0,0-.054,1.327A.442.442,0,0,0,1994.145,1836.44Zm14.615-21.113-5.382-2.648a.681.681,0,0,0-.6,0l-5.373,2.641a.669.669,0,0,0-.365.615v4.9a5.325,5.325,0,0,0,2.13,4.061l3.536,2.417a.673.673,0,0,0,.766,0l3.524-2.416a5.325,5.325,0,0,0,2.129-4.062v-4.89A.668.668,0,0,0,2008.76,1815.327Zm-1.006,5.506a3.952,3.952,0,0,1-1.531,2.929l-3.148,2.153-3.136-2.153a3.949,3.949,0,0,1-1.527-2.929v-4.47l4.672-2.3,4.671,2.312Zm-5.341-.421,2.24-2.24a.686.686,0,0,1,.97.97l-2.727,2.728a.689.689,0,0,1-.486.2h0a.685.685,0,0,1-.486-.206l-1.381-1.4a.686.686,0,0,1,.974-.966Z" transform="translate(-1988.54 -1805.078)"/></svg>