<svg xmlns="http://www.w3.org/2000/svg" width="44.832" height="34.862" viewBox="0 0 44.832 34.862"><defs><style>.a{fill:#5a6d7c;}</style></defs><path class="a" d="M990.175,1613.223a.657.657,0,0,1-.657.657h-3.464c-3.78,6.349-11.769,10.972-17.939,14.97a.655.655,0,0,1-.712,0c-6.179-4-14.161-8.622-17.939-14.97H946a.657.657,0,1,1,0-1.313h2.749c-4.555-9.472,2.049-18.473,10.689-18.473a12.054,12.054,0,0,1,8.322,3.289,12.156,12.156,0,0,1,7.162-3.234.657.657,0,1,1,.123,1.308,10.847,10.847,0,0,0-6.811,3.3.657.657,0,0,1-.949,0,10.765,10.765,0,0,0-7.847-3.353c-7.976,0-13.847,8.5-9.232,17.16h3.57l3.322-6.836a.657.657,0,0,1,1.212.076l3.362,9.866,2.62-8.863a.657.657,0,0,1,1.194-.15l2.6,4.369,3.093-7.621a.657.657,0,0,1,1.211-.017l1.522,3.473a.657.657,0,1,1-1.2.527l-.9-2.047-3,7.4a.657.657,0,0,1-1.173.089l-2.506-4.213-2.779,9.4a.657.657,0,0,1-1.251.026l-3.513-10.31-2.8,5.77a.658.658,0,0,1-.591.37H951c3.728,5.664,11.154,10.008,16.755,13.636,3.511-2.432,12.57-7.279,16.755-13.636H982.47a.657.657,0,0,1-.588-.364l-1.734-3.485-2.132,6.609a.657.657,0,0,1-1.227.062l-3.046-6.95a.657.657,0,1,1,1.2-.527l2.352,5.365,2.1-6.5a.657.657,0,0,1,1.213-.091l2.27,4.564h2.436c4.081-7.658-.037-15.365-6.839-16.894a.657.657,0,0,1,.288-1.281c7.469,1.679,11.986,9.9,8.009,18.176h2.749A.657.657,0,0,1,990.175,1613.223Z" transform="translate(-945.344 -1594.094)"/></svg>