<svg xmlns="http://www.w3.org/2000/svg" width="33.129" height="33.117" viewBox="0 0 33.129 33.117"><defs><style>.a{fill:#5a6d7c;}</style></defs><path class="a" d="M50.027,43.918,43.008,36.9a.551.551,0,0,0-.78,0l-1.562,1.562-1.95-1.95,2.009-2.007A8.305,8.305,0,0,0,48.4,32.29h0a8.322,8.322,0,0,0,1.944-8.624.552.552,0,0,0-.909-.206l-3.915,3.912L42.6,26.4l-.974-2.922,3.912-3.915a.551.551,0,0,0-.206-.909,8.271,8.271,0,0,0-10.843,9.614l-2.007,2.009L25.45,23.24l-.221-2.377a.551.551,0,0,0-.321-.451L20.62,18.465a.551.551,0,0,0-.618.11l-1.555,1.555a.551.551,0,0,0-.11.618l1.946,4.29a.551.551,0,0,0,.452.321l2.377.221,7.031,7.029L19.157,43.594a3.865,3.865,0,0,0,0,5.459l.777.777a3.866,3.866,0,0,0,5.459,0L36.383,38.847l1.95,1.949L36.77,42.359a.551.551,0,0,0,0,.78l7.018,7.018a3.864,3.864,0,0,0,5.459,0l.78-.78a3.86,3.86,0,0,0,0-5.459h0ZM23.749,24.659a.552.552,0,0,0-.339-.159l-2.256-.207L19.5,20.642l1.015-1.015,3.65,1.654.208,2.256a.552.552,0,0,0,.159.339L31.7,31.051l-.776.776Zm.867,24.394a2.762,2.762,0,0,1-3.9,0l-.777-.777a2.762,2.762,0,0,1,0-3.9L35.486,28.825a.551.551,0,0,0,.143-.533,7.18,7.18,0,0,1,8.463-8.853L40.6,22.933a.551.551,0,0,0-.133.565L41.638,27a.551.551,0,0,0,.349.348l3.507,1.168a.551.551,0,0,0,.564-.132l3.5-3.49A7.165,7.165,0,0,1,40.7,33.361a.546.546,0,0,0-.532.143ZM37.163,38.068l.626-.626.149-.149,1.952,1.95-.777.777ZM49.247,48.6l-.78.777a2.76,2.76,0,0,1-3.9,0L37.94,42.749l4.679-4.679L49.247,44.7a2.757,2.757,0,0,1,0,3.9Z" transform="translate(-18.029 -18.168)"/></svg>