<svg xmlns="http://www.w3.org/2000/svg" width="36.315" height="32.688" viewBox="0 0 36.315 32.688"><defs><style>.a{fill:#465b69;}</style></defs><path class="a" d="M1927.461,1809.974h-4.846v-3.026a.605.605,0,0,0-1.21,0v3.026h-15.736v-3.026a.605.605,0,0,0-1.21-.01v3.036h-4.844a4.241,4.241,0,0,0-4.237,4.237v20.578a4.242,4.242,0,0,0,4.237,4.237h27.841a4.241,4.241,0,0,0,4.237-4.237v-20.578A4.242,4.242,0,0,0,1927.461,1809.974Zm-27.841,1.211h4.842v3.026a.605.605,0,1,0,1.21.01v-3.036h15.736v3.026a.605.605,0,1,0,1.21.01v-3.036h4.842a3.03,3.03,0,0,1,3.026,3.026v4.237h-33.894v-4.237a3.03,3.03,0,0,1,3.023-3.026Zm27.841,26.63h-27.846a3.029,3.029,0,0,1-3.026-3.026v-15.131h33.894v15.131A3.029,3.029,0,0,1,1927.461,1837.815Zm-21.415-10.095h-4.086a1.786,1.786,0,0,1-1.784-1.783v-2.054a1.785,1.785,0,0,1,1.784-1.783h4.086a1.785,1.785,0,0,1,1.784,1.783v2.054A1.785,1.785,0,0,1,1906.046,1827.72Zm-4.086-4.521a.685.685,0,0,0-.684.684v2.054a.685.685,0,0,0,.684.683h4.086a.685.685,0,0,0,.684-.683v-2.054a.685.685,0,0,0-.684-.684Zm13.618,4.521h-4.086a1.786,1.786,0,0,1-1.784-1.783v-2.054a1.785,1.785,0,0,1,1.784-1.783h4.086a1.785,1.785,0,0,1,1.784,1.783v2.054A1.785,1.785,0,0,1,1915.578,1827.72Zm-4.086-4.521a.685.685,0,0,0-.684.684v2.054a.685.685,0,0,0,.684.683h4.086a.685.685,0,0,0,.685-.683v-2.054a.685.685,0,0,0-.685-.684Zm13.618,4.521h-4.086a1.785,1.785,0,0,1-1.784-1.783v-2.054a1.785,1.785,0,0,1,1.784-1.783h4.086a1.785,1.785,0,0,1,1.784,1.783v2.054A1.785,1.785,0,0,1,1925.11,1827.72Zm-4.086-4.521a.685.685,0,0,0-.684.684v2.054a.685.685,0,0,0,.684.683h4.086a.685.685,0,0,0,.684-.683v-2.054a.685.685,0,0,0-.684-.684Zm-14.978,11.5h-4.086a1.786,1.786,0,0,1-1.784-1.784v-2.054a1.786,1.786,0,0,1,1.784-1.783h4.086a1.785,1.785,0,0,1,1.784,1.783v2.054A1.786,1.786,0,0,1,1906.046,1834.7Zm-4.086-4.521a.684.684,0,0,0-.684.683v2.054a.686.686,0,0,0,.684.685h4.086a.686.686,0,0,0,.684-.685v-2.054a.684.684,0,0,0-.684-.683Zm13.618,4.521h-4.086a1.786,1.786,0,0,1-1.784-1.784v-2.054a1.786,1.786,0,0,1,1.784-1.783h4.086a1.785,1.785,0,0,1,1.784,1.783v2.054A1.786,1.786,0,0,1,1915.578,1834.7Zm-4.086-4.521a.684.684,0,0,0-.684.683v2.054a.686.686,0,0,0,.684.685h4.086a.686.686,0,0,0,.685-.685v-2.054a.684.684,0,0,0-.685-.683Zm13.618,4.521h-4.086a1.786,1.786,0,0,1-1.784-1.784v-2.054a1.785,1.785,0,0,1,1.784-1.783h4.086a1.785,1.785,0,0,1,1.784,1.783v2.054A1.786,1.786,0,0,1,1925.11,1834.7Zm-4.086-4.521a.684.684,0,0,0-.684.683v2.054a.686.686,0,0,0,.684.685h4.086a.686.686,0,0,0,.684-.685v-2.054a.684.684,0,0,0-.684-.683Z" transform="translate(-1895.378 -1806.338)"/></svg>