<svg xmlns="http://www.w3.org/2000/svg" width="47.915" height="29.257" viewBox="0 0 47.915 29.257"><defs><style>.a{fill:#465b69;}</style></defs><path class="a" d="M1982.021,1829.506h-3.051v-3.367a2.753,2.753,0,0,0-2.75-2.751h-14.306v-3.46h3.354a3.2,3.2,0,0,0,3.194-3.195v-3.451a3.2,3.2,0,0,0-3.194-3.194h-8.021a3.2,3.2,0,0,0-3.194,3.194v3.451a3.2,3.2,0,0,0,3.194,3.195h3.355v3.46h-14.308a2.753,2.753,0,0,0-2.75,2.751v3.367H1940.5a3.2,3.2,0,0,0-3.195,3.195v3.452a3.2,3.2,0,0,0,3.195,3.192h8.021a3.2,3.2,0,0,0,3.194-3.192V1832.7a3.2,3.2,0,0,0-3.194-3.195h-3.659v-3.367a1.44,1.44,0,0,1,1.438-1.439H1960.6v4.805h-3.355a3.2,3.2,0,0,0-3.194,3.195v3.452a3.2,3.2,0,0,0,3.194,3.192h8.021a3.2,3.2,0,0,0,3.194-3.192V1832.7a3.2,3.2,0,0,0-3.194-3.195h-3.354V1824.7h14.306a1.44,1.44,0,0,1,1.439,1.439v3.367H1974a3.2,3.2,0,0,0-3.195,3.195v3.452a3.2,3.2,0,0,0,3.195,3.192h8.021a3.2,3.2,0,0,0,3.195-3.192V1832.7A3.2,3.2,0,0,0,1982.021,1829.506Zm-26.656-12.772v-3.451a1.885,1.885,0,0,1,1.883-1.883h8.021a1.885,1.885,0,0,1,1.883,1.883v3.451a1.885,1.885,0,0,1-1.883,1.883h-8.021A1.885,1.885,0,0,1,1955.365,1816.734ZM1950.4,1832.7v3.452a1.885,1.885,0,0,1-1.883,1.881H1940.5a1.885,1.885,0,0,1-1.882-1.881V1832.7a1.885,1.885,0,0,1,1.882-1.883h8.021A1.885,1.885,0,0,1,1950.4,1832.7Zm16.753,0v3.452a1.885,1.885,0,0,1-1.883,1.881h-8.021a1.885,1.885,0,0,1-1.883-1.881V1832.7a1.885,1.885,0,0,1,1.883-1.883h8.021A1.885,1.885,0,0,1,1967.152,1832.7Zm16.752,3.452a1.885,1.885,0,0,1-1.882,1.881H1974a1.885,1.885,0,0,1-1.882-1.881V1832.7a1.885,1.885,0,0,1,1.882-1.883h8.021a1.885,1.885,0,0,1,1.882,1.883Z" transform="translate(-1937.301 -1810.089)"/></svg>