<svg xmlns="http://www.w3.org/2000/svg" width="30.429" height="39.357" viewBox="0 0 30.429 39.357"><defs><style>.a{fill:#5a6d7c;}</style></defs><path class="a" d="M1343.851,1586.993v34.537a.629.629,0,0,1-.629.629h-17.941a.629.629,0,0,1,0-1.258h17.312v-33.279h-1.257v30.345a.629.629,0,0,1-.629.629h-23.513v2.305h5.381a.629.629,0,0,1,0,1.258h-6.01a.629.629,0,0,1-.629-.629V1618.6h-1.886a.629.629,0,0,1-.629-.629v-29.759a.629.629,0,1,1,1.258,0v29.13h25.4v-33.28h-25.4v1.415a.629.629,0,0,1-1.258,0v-2.043a.629.629,0,0,1,.629-.629h26.657a.629.629,0,0,1,.629.629v2.934h1.886A.629.629,0,0,1,1343.851,1586.993Zm-18.724,14.015a3.144,3.144,0,1,1,4.139,0,4.742,4.742,0,0,1,2.667,4.259.629.629,0,0,1-1.257,0,3.479,3.479,0,0,0-6.958,0,.629.629,0,0,1-1.257,0A4.742,4.742,0,0,1,1325.128,1601.008Zm.184-2.363a1.886,1.886,0,1,0,1.886-1.886A1.888,1.888,0,0,0,1325.312,1598.645Zm10.354-4.778h-16.6a.629.629,0,0,1-.629-.629v-5.03a.629.629,0,0,1,.629-.629h16.6a.628.628,0,0,1,.628.629v5.03A.629.629,0,0,1,1335.665,1593.867Zm-.629-5.03h-15.343v3.772h15.343Zm-16.934,20.37a.629.629,0,0,0,.629.629h16.933a.629.629,0,0,0,0-1.257h-16.933A.629.629,0,0,0,1318.1,1609.208Zm.629,3.311h16.933a.629.629,0,1,0,0-1.257h-16.933a.629.629,0,1,0,0,1.257Z" transform="translate(-1313.422 -1582.802)"/></svg>