<svg xmlns="http://www.w3.org/2000/svg" width="39.411" height="39.411" viewBox="0 0 39.411 39.411"><defs><style>.a{fill:#5a6d7c;}</style></defs><path class="a" d="M2243.779,1586.267a19.705,19.705,0,1,0,12.165,18.205A19.706,19.706,0,0,0,2243.779,1586.267Zm-.444,35.34a18.546,18.546,0,1,1,11.449-17.134A18.546,18.546,0,0,1,2243.335,1621.607Zm-12.8-18.657a4.18,4.18,0,1,0-3.863-2.581A4.18,4.18,0,0,0,2230.535,1602.949Zm-2.137-6.317a3.024,3.024,0,1,1-.656,3.3A3.027,3.027,0,0,1,2228.4,1596.632Zm11.6,9.3a4.241,4.241,0,1,0,5.149,1.564A4.241,4.241,0,0,0,2239.995,1605.928Zm4.184,5.63a3.082,3.082,0,1,1-.385-3.891A3.083,3.083,0,0,1,2244.179,1611.559Zm1.194-15.338-17.387,17.387a.579.579,0,0,1-.819-.819l17.387-17.387A.58.58,0,0,1,2245.373,1596.221Z" transform="translate(-2216.532 -1584.766)"/></svg>