<svg xmlns="http://www.w3.org/2000/svg" width="42.291" height="25.27" viewBox="0 0 42.291 25.27"><defs><style>.a{fill:#465b69;}</style></defs><path class="a" d="M1813.809,1889.1h-24.341a9.911,9.911,0,0,1,0-19.823c.272,0,.54.013.8.036a12.622,12.622,0,0,1,22.573,3.77,7.749,7.749,0,0,1,.963-.062,8.039,8.039,0,0,1,0,16.079Zm-24.341-18.723a8.812,8.812,0,1,0,0,17.623h24.341a6.94,6.94,0,0,0,0-13.879,6.831,6.831,0,0,0-1.272.123l-.516.1-.12-.512a11.522,11.522,0,0,0-20.893-3.635l-.186.286-.338-.04A8.977,8.977,0,0,0,1789.468,1870.38Z" transform="translate(-1779.557 -1863.833)"/></svg>