<svg xmlns="http://www.w3.org/2000/svg" width="25" height="25" viewBox="0 0 25 25"><defs><style>.a{fill:#004f4d;}</style></defs><path class="a" d="M-6095,2756h-13a6.007,6.007,0,0,1-6-6v-13a6.007,6.007,0,0,1,6-6h13a6.006,6.006,0,0,1,6,6v13A6.006,6.006,0,0,1-6095,2756Zm-2.216-5.5h0l3,1.283-1.036-2.07a4.172,4.172,0,0,0,2.147-3.486c0-2.451-2.493-4.445-5.556-4.445s-5.558,1.994-5.558,4.445,2.493,4.445,5.558,4.445a6.7,6.7,0,0,0,1.45-.172Zm-7.007-14.276c-3.676,0-6.667,2.493-6.667,5.558a5.241,5.241,0,0,0,2.545,4.355l-.879,1.757,2.4-1.025a7.466,7.466,0,0,0,1.617.4,4.657,4.657,0,0,1-.123-1.043c0-3.064,2.991-5.556,6.668-5.556a8.074,8.074,0,0,1,.99.067C-6098.272,2738.119-6101.026,2736.22-6104.223,2736.22Zm7.224,9.725a.834.834,0,0,1-.833-.833.835.835,0,0,1,.833-.835.835.835,0,0,1,.833.835A.834.834,0,0,1-6097,2745.945Zm-3.334,0a.834.834,0,0,1-.833-.833.835.835,0,0,1,.833-.835.836.836,0,0,1,.834.835A.835.835,0,0,1-6100.333,2745.945Zm-1.667-5.558a.834.834,0,0,1-.833-.833.834.834,0,0,1,.833-.833.834.834,0,0,1,.833.833A.834.834,0,0,1-6102,2740.387Zm-4.445,0a.834.834,0,0,1-.833-.833.834.834,0,0,1,.833-.833.834.834,0,0,1,.833.833A.834.834,0,0,1-6106.445,2740.387Z" transform="translate(6114 -2731)"/></svg>